<?xml version="1.0" encoding="UTF-8"?>
<svg width="104px" height="29px" viewBox="0 0 104 29" version="1.1" xmlns="http://www.w3.org/2000/svg" xmlns:xlink="http://www.w3.org/1999/xlink">
    <!-- Generator: Sketch 52.2 (67145) - http://www.bohemiancoding.com/sketch -->
    <title>合并形状</title>
    <desc>Created with Sketch.</desc>
    <g id="Page-1" stroke="none" stroke-width="1" fill="none" fill-rule="evenodd">
        <g id="首页" transform="translate(-370.000000, -17.000000)" fill="#FFFFFF">
            <g id="分组">
                <g id="logo" transform="translate(370.000000, 17.000000)">
                    <path d="M62.6757857,5.49003279 L62.6757857,4.91930328 L62.6758554,2.27127049 C62.6758554,1.97889344 62.9082304,1.74095082 63.1937661,1.74095082 L67.1933554,1.74095082 L67.1933554,2.31168033 L63.2332304,2.31168033 L63.2332304,4.91930328 L67.1932857,4.91930328 L67.1932857,5.49003279 L63.2332304,5.49003279 L63.2332304,7.93363934 L67.1933554,7.93363934 L67.1933554,8.50436885 L63.1937661,8.50436885 C62.9082304,8.50436885 62.6758554,8.26642623 62.6758554,7.97404918 L62.6758554,5.49003279 Z M27.8843113,11.6532601 L26.0070571,15.1117098 C25.9513429,15.2141607 25.8598786,15.2888 25.7523964,15.3194639 L18.5896286,17.3608738 L21.066685,15.8397525 L18.5894893,17.3609213 L24.6651321,6.16834754 C24.7189893,6.06922459 24.8534,6.06922459 24.9072571,6.16834754 L27.8844893,11.6531508 L27.8843113,11.6532601 Z M18.5895821,0.237633607 L18.5895821,11.6531746 L12.5141714,0.46060082 C12.4603143,0.361477869 12.5276357,0.237633607 12.6351179,0.237633607 L18.5895821,0.237633607 Z M20.4670143,3.69631148 C20.5224964,3.7987623 20.5375857,3.92046721 20.5090321,4.03456557 L18.589675,11.6532459 L18.589675,0.237704918 L20.4670143,3.69631148 Z M9.29481429,28.7762721 L9.29481429,17.3609689 L15.370225,28.5535426 C15.4240821,28.6524279 15.3569929,28.7762721 15.2492786,28.7762721 L9.29481429,28.7762721 Z M7.41735893,25.3177131 C7.36187679,25.2152623 7.3467875,25.0937951 7.37557321,24.9792213 L9.29469821,17.3607787 L9.29469821,28.7763197 L7.41735893,25.3177131 Z M4.64740714,3.09149508 L13.942175,8.79926557 L1.79112143,8.79926557 C1.68363929,8.79926557 1.61631786,8.67542131 1.670175,8.57629836 L4.64740714,3.09149508 Z M8.40215536,3.09149508 C8.51335179,3.09149508 8.61990536,3.13856066 8.69860179,3.22223279 L13.9422446,8.79926557 L4.64747679,3.09149508 L8.40215536,3.09149508 Z M23.2369661,25.9224107 L13.9421982,20.2146402 L26.0932518,20.2146402 C26.2009661,20.2146402 26.2680554,20.3387221 26.2141982,20.4378451 L23.2369661,25.9224107 Z M23.2368964,25.9224107 L19.4822179,25.9224107 C19.3710214,25.9224107 19.2644679,25.8755828 19.1857714,25.7919107 L13.9421286,20.2146402 L23.2368964,25.9224107 Z M0.000201206145,17.3607407 L1.87745536,13.902291 C1.9329375,13.7998402 2.02463393,13.7249631 2.13188393,13.6945369 L9.29488393,11.653127 L3.21938036,22.8456533 C3.16552321,22.9447762 3.0311125,22.9447762 2.97725536,22.8456533 L2.32142858e-05,17.36085 L0.000201206145,17.3607407 Z M37.7526964,21.5657787 L50.1834821,21.5657787 L50.1834821,18.1701639 L37.7526964,18.1701639 L37.7526964,21.5657787 Z M36.6869286,27.2730738 C36.5142143,27.2730738 36.3742321,27.1297377 36.3742321,26.9528852 L36.3742321,12.5729262 C36.3742321,12.3963115 36.5142143,12.2529754 36.6869286,12.2529754 L51.4755893,12.2529754 L51.4755893,13.5622541 L37.7526964,13.5622541 L37.7526964,16.8180984 L51.1628929,16.8180984 C51.3356071,16.8180984 51.4755893,16.9614344 51.4755893,17.1382869 L51.4755893,22.5387049 C51.4755893,22.7155574 51.3356071,22.8586557 51.1628929,22.8586557 L37.7526964,22.8586557 L37.7526964,25.9309918 L51.4755893,25.9309918 L51.4755893,27.2730738 L36.6869286,27.2730738 Z M54.942875,14.0100902 L67.6287857,14.0100902 L67.6287857,13.2147295 L54.942875,13.2147295 L54.942875,14.0100902 Z M54.942875,15.7674426 L67.6287857,15.7674426 L67.6287857,14.9718443 L54.942875,14.9718443 L54.942875,15.7674426 Z M54.942875,12.2529754 L67.6287857,12.2529754 L68.4930536,12.2529754 C68.6657679,12.2529754 68.80575,12.3963115 68.80575,12.5729262 L68.80575,13.2147295 L68.80575,14.0100902 L68.80575,14.972082 L68.80575,15.7674426 L68.80575,16.4090082 C68.80575,16.5860984 68.6657679,16.7294344 68.4930536,16.7294344 L67.6287857,16.7294344 L54.942875,16.7294344 L54.078375,16.7294344 C53.9058929,16.7294344 53.7656786,16.5860984 53.7656786,16.4090082 L53.7656786,15.7674426 L53.7656786,14.972082 L53.7656786,14.0100902 L53.7656786,13.2147295 L53.7656786,12.5729262 C53.7656786,12.3963115 53.9058929,12.2529754 54.078375,12.2529754 L54.942875,12.2529754 Z M53.7656786,18.4867869 L53.7656786,17.5247951 L68.80575,17.5247951 L68.80575,18.4867869 L53.7656786,18.4867869 Z M67.4723214,21.0392623 C67.5586786,21.0392623 67.6287857,20.9674754 67.6287857,20.8790492 L67.6287857,20.4041148 C67.6287857,20.3156885 67.5586786,20.2439016 67.4723214,20.2439016 L61.8932321,20.2439016 L61.8932321,21.0392623 L67.4723214,21.0392623 Z M67.4723214,22.7966148 C67.5586786,22.7966148 67.6287857,22.7248279 67.6287857,22.6366393 L67.6287857,22.1614672 C67.6287857,22.073041 67.5586786,22.0012541 67.4723214,22.0012541 L61.8932321,22.0012541 L61.8932321,22.7966148 L67.4723214,22.7966148 Z M54.942875,22.7966148 L60.6784286,22.7966148 L60.6784286,22.0012541 L54.942875,22.0012541 L54.942875,22.7966148 Z M54.942875,21.0392623 L60.6784286,21.0392623 L60.6784286,20.2439016 L54.942875,20.2439016 L54.942875,21.0392623 Z M54.942875,19.2819098 L67.6287857,19.2819098 L68.4930536,19.2819098 C68.6657679,19.2819098 68.80575,19.4252459 68.80575,19.6020984 L68.80575,20.2439016 L68.80575,21.0392623 L68.80575,22.0012541 L68.80575,22.7966148 L68.80575,23.438418 C68.80575,23.6152705 68.6657679,23.7583689 68.4930536,23.7583689 L67.6287857,23.7583689 L61.8932321,23.7583689 L61.8932321,24.5537295 L68.80575,24.5537295 L68.80575,25.5157213 L61.8932321,25.5157213 L61.8932321,26.3113197 L68.80575,26.3113197 L68.80575,27.2730738 L61.8932321,27.2730738 L60.6781964,27.2730738 L53.7656786,27.2730738 L53.7656786,26.3113197 L60.6781964,26.3113197 L60.6781964,25.5157213 L53.7656786,25.5157213 L53.7656786,24.5537295 L60.6781964,24.5537295 L60.6781964,23.7583689 L54.942875,23.7583689 L54.078375,23.7583689 C53.9058929,23.7583689 53.7656786,23.6152705 53.7656786,23.438418 L53.7656786,22.7966148 L53.7656786,22.0012541 L53.7656786,21.0392623 L53.7656786,20.2439016 L53.7656786,19.6020984 C53.7656786,19.4252459 53.9058929,19.2819098 54.078375,19.2819098 L54.942875,19.2819098 Z M84.6627321,27.2730738 L84.6627321,12.2529754 L85.9274464,12.2529754 L85.9274464,27.2730738 L84.6627321,27.2730738 Z M71.0960482,13.5298311 L71.0960482,12.2528803 L80.5721196,12.2528803 C80.7448339,12.2528803 80.8848161,12.3962164 80.8848161,12.5730689 L80.8848161,17.4132164 C80.8848161,17.5903066 80.7448339,17.7336426 80.5721196,17.7336426 L72.3024946,17.7336426 L72.3024946,20.9379049 L80.5721196,20.9379049 C80.7448339,20.9379049 80.8848161,21.081241 80.8848161,21.2578557 L80.8848161,25.5474787 C80.8848161,26.5004377 80.1303518,27.2729787 79.1996911,27.2729787 L72.1878161,27.2729787 L71.5280661,26.1029951 L78.5989054,26.1029951 C79.2837268,26.1029951 79.5901554,25.6974705 79.5901554,25.2955115 L79.5901554,22.1887082 L71.4087446,22.1887082 C71.2360304,22.1887082 71.0960482,22.0453721 71.0960482,21.8687574 L71.0960482,16.8320279 C71.0960482,16.6551754 71.2360304,16.5116016 71.4087446,16.5116016 L79.6245125,16.5116016 L79.6245125,13.5298311 L71.0960482,13.5298311 Z M89.9824714,18.0103787 C89.9824714,18.0669525 90.027275,18.1130672 90.082525,18.1130672 L93.501525,18.1130672 C93.556775,18.1130672 93.6015786,18.0669525 93.6015786,18.0103787 L93.6015786,17.1387148 C93.6015786,17.082141 93.556775,17.0362639 93.501525,17.0362639 L90.082525,17.0362639 C90.027275,17.0362639 89.9824714,17.082141 89.9824714,17.1387148 L89.9824714,18.0103787 Z M90.2684714,14.3763459 L94.2989357,14.3763459 L94.2989357,13.681059 L90.2684714,13.681059 L90.2684714,14.3763459 Z M97.68265,14.9340016 C97.2448286,15.7210426 96.7573286,16.2563541 96.4204893,16.5696492 L96.4204893,19.0363131 C97.6373821,18.6498049 98.6151679,18.0564934 99.3940071,17.399477 C98.7479536,16.7301 98.1460071,15.9161984 97.68265,14.9340016 Z M100.209525,16.6176656 C101.338436,15.3908705 101.876543,14.1376902 102.048096,13.6812967 L98.253025,13.6812967 C98.5007214,14.2477475 99.1105607,15.4602803 100.209525,16.6176656 Z M101.004382,17.3635836 C101.764418,17.9963541 102.696007,18.5597148 103.823525,18.9191246 L103.823525,20.1261902 L103.823525,20.160182 L103.823525,21.1312066 C103.247811,21.2048951 100.487864,21.5747639 97.3230607,21.6256328 L97.1958464,21.6275344 L97.1958464,22.4894525 L103.823525,22.4894525 L103.823525,23.4982721 L97.1958464,23.4982721 L97.1958464,24.3269115 L103.823525,24.3269115 L103.823525,25.3357311 L97.1958464,25.3357311 L97.1958464,26.3117475 C97.1958464,26.8425426 96.7754357,27.2730262 96.2568286,27.2730262 L93.7754536,27.2730262 L93.2032214,26.2580262 L95.5290607,26.2580262 C95.7971857,26.2580262 96.0147036,26.0352967 96.0147036,25.7605098 L96.0147036,25.3357311 L88.941775,25.3357311 L88.941775,24.3269115 L96.0147036,24.3269115 L96.0147036,23.4982721 L88.941775,23.4982721 L88.941775,22.4894525 L96.0147036,22.4894525 L96.0147036,21.6315754 L88.941775,21.6315754 L88.941775,20.6227557 L96.27865,20.6227557 C100.031007,20.6227557 103.01265,20.2402885 103.748079,20.1368869 C103.386168,20.0227885 101.772079,19.4627557 100.188168,18.1382639 C98.3338107,19.7242311 96.3944893,20.3320426 96.3944893,20.3320426 L96.3944893,19.3978623 C96.2863107,19.9488623 95.848025,20.4111984 95.3229179,20.4111984 L94.0468286,20.4111984 L93.5702393,19.4323295 L94.8869536,19.4323295 C95.12815,19.4323295 95.3233821,19.2202967 95.3233821,18.9585836 L95.3233821,15.3758951 L89.9843286,15.3758951 C89.8557214,15.5651082 89.6867214,15.7873623 89.4705964,16.0286328 L94.3274893,16.0222148 C94.5002036,16.021977 94.6404179,16.1650754 94.6404179,16.3421656 L94.6401857,18.7997967 C94.6401857,18.9766492 94.5002036,19.120223 94.3274893,19.120223 L89.9824714,19.120223 L89.2542393,19.120223 C89.0817571,19.120223 88.941775,18.9766492 88.941775,18.7997967 L88.941775,18.1130672 L88.941775,16.5594279 C88.7298286,16.7514934 88.490025,16.9478377 88.2174893,17.1429934 L88.2174893,15.7386328 C88.2174893,15.7386328 88.8517036,15.2520508 89.2275429,14.605018 L89.2275429,13.6812967 L88.2174893,13.6812967 L88.2174893,12.6249361 L89.2275429,12.6249361 L89.2275429,12.0470754 L90.2682393,12.0470754 L90.2682393,12.6249361 L94.2989357,12.6249361 L94.2989357,12.0470754 L95.3396321,12.0470754 L95.3396321,12.6249361 L96.4204893,12.6249361 L96.4204893,13.6812967 L95.3396321,13.6812967 L95.3396321,14.3763459 L96.108025,14.3763459 C96.2805071,14.3763459 96.4204893,14.519682 96.4204893,14.6967721 L96.4204893,14.7887639 C97.2522571,13.7499934 97.5189893,12.0470754 97.5189893,12.0470754 L98.613775,12.0470754 C98.5875429,12.2465098 98.5550429,12.4388131 98.5181321,12.6249361 L103.817025,12.6249361 L103.817025,13.6812967 L103.146364,13.6812967 C102.702275,15.2023705 101.902543,16.4141902 101.004382,17.3635836 Z M36.907,7.93363934 L40.730625,7.93363934 L40.730625,2.31191803 L36.907,2.31191803 L36.907,7.93363934 Z M40.7700893,8.50436885 L36.8677679,8.50436885 C36.582,8.50436885 36.349625,8.26642623 36.349625,7.97404918 L36.349625,2.27127049 C36.349625,1.97889344 36.582,1.74095082 36.8677679,1.74095082 L40.7700893,1.74095082 C41.0558571,1.74095082 41.2882321,1.97889344 41.2882321,2.27127049 L41.2882321,7.97404918 C41.2882321,8.26642623 41.0558571,8.50436885 40.7700893,8.50436885 Z M45.8966393,8.50436885 L42.6180857,8.50436885 C42.3323179,8.50436885 42.100175,8.26642623 42.100175,7.97404918 L42.100175,4.07307377 C42.100175,3.78069672 42.3323179,3.5427541 42.6180857,3.5427541 L45.8966393,3.5427541 L45.8966393,4.11348361 L42.65755,4.11348361 L42.65755,7.93363934 L45.8966393,7.93363934 L45.8966393,8.50436885 Z M59.7200268,8.50436885 L59.1626518,8.50436885 L59.1626518,4.11348361 L56.4830268,4.11348361 L56.4830268,8.50436885 L55.9256518,8.50436885 L55.9256518,4.07307377 C55.9256518,3.78069672 56.1580268,3.5427541 56.4435625,3.5427541 L59.2021161,3.5427541 C59.4876518,3.5427541 59.7200268,3.78069672 59.7200268,4.07307377 L59.7200268,8.50436885 Z M71.8467518,8.50436885 L71.2893768,8.50436885 L71.2893768,4.11348361 L68.6099839,4.11348361 L68.6099839,8.50436885 L68.0523768,8.50436885 L68.0523768,4.07307377 C68.0523768,3.78069672 68.2847518,3.5427541 68.5705196,3.5427541 L71.3288411,3.5427541 C71.6143768,3.5427541 71.8467518,3.78069672 71.8467518,4.07307377 L71.8467518,8.50436885 Z M82.5722625,8.50436885 L82.0148875,8.50436885 L82.0148875,4.11348361 L79.3352625,4.11348361 L79.3352625,8.50436885 L78.7778875,8.50436885 L78.7778875,4.07307377 C78.7778875,3.78069672 79.0102625,3.5427541 79.2957982,3.5427541 L82.0543518,3.5427541 C82.3398875,3.5427541 82.5722625,3.78069672 82.5722625,4.07307377 L82.5722625,8.50436885 Z M77.361375,8.50436885 L77.361375,3.5427541 L77.91875,3.5427541 L77.91875,8.50436885 L77.361375,8.50436885 Z M77.361375,2.89928689 L77.361375,2.13863115 L77.91875,2.13863115 L77.91875,2.89928689 L77.361375,2.89928689 Z M47.2659107,5.89294262 L49.947625,5.89294262 L49.947625,4.11372131 L47.2659107,4.11372131 L47.2659107,5.89294262 Z M50.4279286,8.50436885 L47.2266786,8.50436885 C46.9409107,8.50436885 46.7085357,8.26642623 46.7085357,7.97404918 L46.7085357,4.07307377 C46.7085357,3.78069672 46.9409107,3.5427541 47.2266786,3.5427541 L49.9873214,3.5427541 C50.2728571,3.5427541 50.5052321,3.78069672 50.5052321,4.07307377 L50.5052321,5.93311475 C50.5052321,6.22572951 50.2728571,6.46367213 49.9873214,6.46367213 L47.2659107,6.46367213 L47.2659107,7.93363934 L50.4279286,7.93363934 L50.4279286,8.50436885 Z M83.9112857,5.89294262 L86.593,5.89294262 L86.593,4.11372131 L83.9112857,4.11372131 L83.9112857,5.89294262 Z M87.0730714,8.50436885 L83.8718214,8.50436885 C83.5862857,8.50436885 83.3539107,8.26642623 83.3539107,7.97404918 L83.3539107,4.07307377 C83.3539107,3.78069672 83.5862857,3.5427541 83.8718214,3.5427541 L86.6324643,3.5427541 C86.9182321,3.5427541 87.1506071,3.78069672 87.1506071,4.07307377 L87.1506071,5.93311475 C87.1506071,6.22572951 86.9182321,6.46367213 86.6324643,6.46367213 L83.9112857,6.46367213 L83.9112857,7.93363934 L87.0730714,7.93363934 L87.0730714,8.50436885 Z M51.8746429,7.93363934 L54.5563571,7.93363934 L54.5563571,6.15441803 L51.8746429,6.15441803 L51.8746429,7.93363934 Z M54.5958214,8.50436885 L51.8351786,8.50436885 C51.5494107,8.50436885 51.3170357,8.26642623 51.3170357,7.97404918 L51.3170357,6.1140082 C51.3170357,5.82139344 51.5494107,5.58345082 51.8351786,5.58345082 L54.556125,5.58345082 L54.556125,4.11348361 L51.4203393,4.11348361 L51.4203393,3.5427541 L54.5958214,3.5427541 C54.8813571,3.5427541 55.1137321,3.78069672 55.1137321,4.07307377 L55.1137321,7.97404918 C55.1137321,8.26642623 54.8813571,8.50436885 54.5958214,8.50436885 Z M73.263125,7.01871311 L75.9448393,7.01871311 L75.9448393,4.11348361 L73.263125,4.11348361 L73.263125,7.01871311 Z M75.9843036,9.63037705 L72.8088214,9.63037705 L72.8088214,9.05940984 L75.9450714,9.05940984 L75.9450714,7.58944262 L73.2238929,7.58944262 C72.938125,7.58944262 72.70575,7.3515 72.70575,7.05912295 L72.70575,4.07307377 C72.70575,3.78069672 72.938125,3.5427541 73.2238929,3.5427541 L75.9843036,3.5427541 C76.2700714,3.5427541 76.5024464,3.78069672 76.5024464,4.07307377 L76.5024464,9.09981967 C76.5024464,9.39243443 76.2700714,9.63037705 75.9843036,9.63037705 Z" id="合并形状"></path>
                </g>
            </g>
        </g>
    </g>
</svg>